<svg xmlns="http://www.w3.org/2000/svg" width="924" height="218" viewBox="0 11 924 218">
<title>Perspikapps lockup</title>
<g transform="matrix(0.7416,0,0,0.7314,-77.13,-97.25)">
<circle cx="361.69" cy="278.76" r="130.39" fill="#F2F2F2"></circle>
  <path d="M 298.44 164.73 A 130.39 130.39 0 1 0 298.44 392.79 A 194.51 194.51 0 0 1 298.44 164.73 Z" fill="#D9D9D9"></path>
  <g fill="#2E75B6">
    <circle cx="361.69" cy="278.76" r="79.25"></circle>
    <rect x="408.19" y="278.76" width="32.75" height="79.25"></rect>
  </g>
  <g fill="#1F4E79">
    <circle cx="235.19" cy="278.76" r="79.25"></circle>
    <rect x="155.94" y="278.76" width="32.75" height="153.24"></rect>
  </g>
  <circle cx="361.69" cy="278.76" r="46.5" fill="#FFFFFF"></circle>
  <circle cx="235.19" cy="278.76" r="46.5" fill="#FFFFFF"></circle>
</g>
<path d="M401-201L401-201L249-201L249 0L77 0L77-713L403-713Q533-713 615-641.50Q697-570 697-457Q697-344 614.50-272.50Q532-201 401-201ZM369-580L369-580L249-580L249-334L369-334Q435-334 477-368.50Q519-403 518-457L518-457Q518-512 476.50-546Q435-580 369-580ZM1028-533L1028-533Q1149-533 1225-456.50Q1301-380 1301-258L1301-258Q1301-218 1296-195L1296-195L907-195Q921-151 952-125.50Q983-100 1027-100L1027-100Q1065-100 1095.50-116.50Q1126-133 1136-159L1136-159L1264-159L1264-101Q1240-46 1173-13Q1106 20 1024 20L1024 20Q897 20 818-58Q739-136 739-260L739-260Q739-381 819.50-457Q900-533 1028-533ZM1019-413L1019-413Q970-413 938-378.50Q906-344 899-287L899-287L1141-287Q1140-341 1106-377Q1072-413 1019-413ZM1695-532L1695-532Q1764-532 1798-493L1798-493L1798-349L1720-349Q1713-368 1693.50-380.50Q1674-393 1651-393L1651-393Q1613-393 1588.50-359Q1564-325 1564-271L1564-271L1564 0L1405 0L1405-513L1558-513L1558-447Q1580-487 1616-509.50Q1652-532 1695-532ZM2092 20L2092 20Q2013 20 1949.50-12Q1886-44 1866-94L1866-94L1866-159L1996-159Q2001-128 2029.50-109Q2058-90 2099-90L2099-90Q2138-90 2162.50-106.50Q2187-123 2187-149L2187-149Q2187-171 2162.50-183Q2138-195 2100.50-197Q2063-199 2020-207Q1977-215 1939.50-227.50Q1902-240 1877.50-274Q1853-308 1853-361L1853-361Q1853-437 1918.50-485Q1984-533 2087-533L2087-533Q2170-533 2233-505Q2296-477 2313-433L2313-433L2313-374L2184-374Q2182-396 2155.50-409.50Q2129-423 2090-423L2090-423Q2053-423 2029.50-409Q2006-395 2006-373L2006-373Q2006-353 2030.50-342Q2055-331 2092.50-328Q2130-325 2173-316.50Q2216-308 2253.50-295.50Q2291-283 2315.50-250Q2340-217 2340-166L2340-166Q2340-84 2271-32Q2202 20 2092 20ZM2586-36L2586 230L2427 230L2427-276Q2427-388 2505-460.50Q2583-533 2704-533L2704-533Q2829-533 2910.50-454.50Q2992-376 2992-256Q2992-136 2918.50-58Q2845 20 2732 20L2732 20Q2645 20 2586-36L2586-36ZM2833-256L2833-256Q2833-316 2797.50-354.50Q2762-393 2706-393L2706-393Q2651-393 2615.50-354.50Q2580-316 2580-256L2580-256Q2580-197 2615.50-158.50Q2651-120 2706-120Q2761-120 2797-158.50Q2833-197 2833-256ZM3257 0L3098 0L3098-513L3257-513L3257 0ZM3086-666L3086-666Q3086-705 3111.50-730Q3137-755 3177-755Q3217-755 3243-730Q3269-705 3269-666L3269-666Q3269-628 3243-603Q3217-578 3177-578Q3137-578 3111.50-603Q3086-628 3086-666ZM3552-743L3552-320L3737-513L3875-513L3875-435L3703-266L3885-72L3885 0L3741 0L3552-212L3552 0L3393 0L3393-743L3552-743Z" fill="#1F4E79" transform="matrix(0.0946,0,0,0.0924,318.72,117.75)"></path>
<path d="M4027-455Q4107-533 4232-533Q4357-533 4438-455Q4519-377 4519-256L4519-256L4519 0L4373 0L4373-61Q4308 20 4199 20L4199 20Q4087 20 4017-57Q3947-134 3947-256L3947-256Q3947-377 4027-455ZM4324.50-354.50Q4289-393 4233-393Q4177-393 4141.50-354.50Q4106-316 4106-256L4106-256Q4106-197 4142-158.50Q4178-120 4233-120Q4288-120 4324-158.50Q4360-197 4360-256L4360-256Q4360-316 4324.50-354.50ZM4782-36L4782 230L4623 230L4623-276Q4623-388 4701-460.50Q4779-533 4900-533L4900-533Q5025-533 5106.50-454.50Q5188-376 5188-256Q5188-136 5114.50-58Q5041 20 4928 20L4928 20Q4841 20 4782-36L4782-36ZM5029-256L5029-256Q5029-316 4993.50-354.50Q4958-393 4902-393L4902-393Q4847-393 4811.50-354.50Q4776-316 4776-256L4776-256Q4776-197 4811.50-158.50Q4847-120 4902-120Q4957-120 4993-158.50Q5029-197 5029-256ZM5441-36L5441 230L5282 230L5282-276Q5282-388 5360-460.50Q5438-533 5559-533L5559-533Q5684-533 5765.50-454.50Q5847-376 5847-256Q5847-136 5773.50-58Q5700 20 5587 20L5587 20Q5500 20 5441-36L5441-36ZM5688-256L5688-256Q5688-316 5652.50-354.50Q5617-393 5561-393L5561-393Q5506-393 5470.50-354.50Q5435-316 5435-256L5435-256Q5435-197 5470.50-158.50Q5506-120 5561-120Q5616-120 5652-158.50Q5688-197 5688-256ZM6153 20L6153 20Q6074 20 6010.50-12Q5947-44 5927-94L5927-94L5927-159L6057-159Q6062-128 6090.50-109Q6119-90 6160-90L6160-90Q6199-90 6223.50-106.50Q6248-123 6248-149L6248-149Q6248-171 6223.50-183Q6199-195 6161.50-197Q6124-199 6081-207Q6038-215 6000.50-227.50Q5963-240 5938.50-274Q5914-308 5914-361L5914-361Q5914-437 5979.50-485Q6045-533 6148-533L6148-533Q6231-533 6294-505Q6357-477 6374-433L6374-433L6374-374L6245-374Q6243-396 6216.50-409.50Q6190-423 6151-423L6151-423Q6114-423 6090.50-409Q6067-395 6067-373L6067-373Q6067-353 6091.50-342Q6116-331 6153.50-328Q6191-325 6234-316.50Q6277-308 6314.50-295.50Q6352-283 6376.50-250Q6401-217 6401-166L6401-166Q6401-84 6332-32Q6263 20 6153 20Z" fill="#2E75B6" transform="matrix(0.0946,0,0,0.0924,318.72,117.75)"></path>
</svg>